# xmcd CD database file
# Copyright (C) 1993-1998 Ti Kan
#
# Track frame offsets:
#	150
#	18000
#	36107
#	51995
#	67670
#	82367
#	98797
#	115445
#	130315
#	147707
#	162420
#	176947
#	193795
#	209410
#	226225
#	243832
#	262665
#	280835
#	299325
#
# Disc length: 4236 seconds
#
# Revision: 1
# Processed by: cddbd v1.4b41PL1 Copyright (c) Steve Scherf et al.
# Submitted via: CDValet v3.31 - Copyright (c) 1997 Greg Leichner
#
DISCID=1c108a13
DTITLE=Various Artist - Inside Tracks (Vol. 1)
DYEAR=1900
DGENRE=
TTITLE0=Am I The same Girl
TTITLE1=Take This Heart
TTITLE2=Waterfall
TTITLE3=Would?
TTITLE4=Seen The Doctor
TTITLE5=Sometimes Love Just Ain't Enough
TTITLE6=Pocket City
TTITLE7=All I Want
TTITLE8=Real Love
TTITLE9=People Everyday
TTITLE10=When You're Away
TTITLE11=Nonstop To Nowhere
TTITLE12=All Over The World
TTITLE13=Brand New Amerika
TTITLE14=It's All Right
TTITLE15=Drowning In Your Eyes
TTITLE16=Can't Find My Way
TTITLE17=Toss It Up
TTITLE18=Tequila
EXTD=
EXTT0=
EXTT1=
EXTT2=
EXTT3=
EXTT4=
EXTT5=
EXTT6=
EXTT7=
EXTT8=
EXTT9=
EXTT10=
EXTT11=
EXTT12=
EXTT13=
EXTT14=
EXTT15=
EXTT16=
EXTT17=
EXTT18=
PLAYORDER=
